solid ASCII
  facet normal 0.000000e+00 0.000000e+00 -1.000000e+00
    outer loop
      vertex   -2.131628e-13 0.000000e+00 -1.700000e+03
      vertex   -1.000000e+03 0.000000e+00 -1.700000e+03
      vertex   -2.131628e-13 2.500000e+03 -1.700000e+03
    endloop
  endfacet
  facet normal -0.000000e+00 0.000000e+00 -1.000000e+00
    outer loop
      vertex   -2.131628e-13 2.500000e+03 -1.700000e+03
      vertex   -1.000000e+03 0.000000e+00 -1.700000e+03
      vertex   -1.000000e+03 2.500000e+03 -1.700000e+03
    endloop
  endfacet
  facet normal 0.000000e+00 0.000000e+00 1.000000e+00
    outer loop
      vertex   -2.000000e+02 0.000000e+00 0.000000e+00
      vertex   0.000000e+00 0.000000e+00 0.000000e+00
      vertex   -2.000000e+02 2.500000e+03 0.000000e+00
    endloop
  endfacet
  facet normal -0.000000e+00 0.000000e+00 1.000000e+00
    outer loop
      vertex   -2.000000e+02 2.500000e+03 0.000000e+00
      vertex   0.000000e+00 0.000000e+00 0.000000e+00
      vertex   0.000000e+00 2.500000e+03 0.000000e+00
    endloop
  endfacet
  facet normal -1.000000e+00 0.000000e+00 -8.526513e-16
    outer loop
      vertex   -2.000000e+02 0.000000e+00 -2.000000e+02
      vertex   -2.000000e+02 0.000000e+00 0.000000e+00
      vertex   -2.000000e+02 2.500000e+03 -2.000000e+02
    endloop
  endfacet
  facet normal -1.000000e+00 0.000000e+00 -8.526513e-16
    outer loop
      vertex   -2.000000e+02 2.500000e+03 -2.000000e+02
      vertex   -2.000000e+02 0.000000e+00 0.000000e+00
      vertex   -2.000000e+02 2.500000e+03 0.000000e+00
    endloop
  endfacet
  facet normal 1.421085e-16 -0.000000e+00 1.000000e+00
    outer loop
      vertex   -4.000000e+02 0.000000e+00 -2.000000e+02
      vertex   -2.000000e+02 0.000000e+00 -2.000000e+02
      vertex   -4.000000e+02 2.500000e+03 -2.000000e+02
    endloop
  endfacet
  facet normal 1.421085e-16 0.000000e+00 1.000000e+00
    outer loop
      vertex   -4.000000e+02 2.500000e+03 -2.000000e+02
      vertex   -2.000000e+02 0.000000e+00 -2.000000e+02
      vertex   -2.000000e+02 2.500000e+03 -2.000000e+02
    endloop
  endfacet
  facet normal -1.000000e+00 0.000000e+00 0.000000e+00
    outer loop
      vertex   -4.000000e+02 0.000000e+00 -4.000000e+02
      vertex   -4.000000e+02 0.000000e+00 -2.000000e+02
      vertex   -4.000000e+02 2.500000e+03 -4.000000e+02
    endloop
  endfacet
  facet normal -1.000000e+00 0.000000e+00 0.000000e+00
    outer loop
      vertex   -4.000000e+02 2.500000e+03 -4.000000e+02
      vertex   -4.000000e+02 0.000000e+00 -2.000000e+02
      vertex   -4.000000e+02 2.500000e+03 -2.000000e+02
    endloop
  endfacet
  facet normal 2.842171e-16 -0.000000e+00 1.000000e+00
    outer loop
      vertex   -6.000000e+02 0.000000e+00 -4.000000e+02
      vertex   -4.000000e+02 0.000000e+00 -4.000000e+02
      vertex   -6.000000e+02 2.500000e+03 -4.000000e+02
    endloop
  endfacet
  facet normal 2.842171e-16 0.000000e+00 1.000000e+00
    outer loop
      vertex   -6.000000e+02 2.500000e+03 -4.000000e+02
      vertex   -4.000000e+02 0.000000e+00 -4.000000e+02
      vertex   -4.000000e+02 2.500000e+03 -4.000000e+02
    endloop
  endfacet
  facet normal -1.000000e+00 0.000000e+00 -1.136868e-15
    outer loop
      vertex   -6.000000e+02 0.000000e+00 -6.000000e+02
      vertex   -6.000000e+02 0.000000e+00 -4.000000e+02
      vertex   -6.000000e+02 2.500000e+03 -6.000000e+02
    endloop
  endfacet
  facet normal -1.000000e+00 0.000000e+00 -1.136868e-15
    outer loop
      vertex   -6.000000e+02 2.500000e+03 -6.000000e+02
      vertex   -6.000000e+02 0.000000e+00 -4.000000e+02
      vertex   -6.000000e+02 2.500000e+03 -4.000000e+02
    endloop
  endfacet
  facet normal 0.000000e+00 0.000000e+00 1.000000e+00
    outer loop
      vertex   -8.000000e+02 0.000000e+00 -6.000000e+02
      vertex   -6.000000e+02 0.000000e+00 -6.000000e+02
      vertex   -8.000000e+02 2.500000e+03 -6.000000e+02
    endloop
  endfacet
  facet normal -0.000000e+00 0.000000e+00 1.000000e+00
    outer loop
      vertex   -8.000000e+02 2.500000e+03 -6.000000e+02
      vertex   -6.000000e+02 0.000000e+00 -6.000000e+02
      vertex   -6.000000e+02 2.500000e+03 -6.000000e+02
    endloop
  endfacet
  facet normal -1.000000e+00 0.000000e+00 0.000000e+00
    outer loop
      vertex   -8.000000e+02 0.000000e+00 -8.000000e+02
      vertex   -8.000000e+02 0.000000e+00 -6.000000e+02
      vertex   -8.000000e+02 2.500000e+03 -8.000000e+02
    endloop
  endfacet
  facet normal -1.000000e+00 0.000000e+00 0.000000e+00
    outer loop
      vertex   -8.000000e+02 2.500000e+03 -8.000000e+02
      vertex   -8.000000e+02 0.000000e+00 -6.000000e+02
      vertex   -8.000000e+02 2.500000e+03 -6.000000e+02
    endloop
  endfacet
  facet normal 0.000000e+00 0.000000e+00 1.000000e+00
    outer loop
      vertex   -1.000000e+03 0.000000e+00 -8.000000e+02
      vertex   -8.000000e+02 0.000000e+00 -8.000000e+02
      vertex   -1.000000e+03 2.500000e+03 -8.000000e+02
    endloop
  endfacet
  facet normal -0.000000e+00 0.000000e+00 1.000000e+00
    outer loop
      vertex   -1.000000e+03 2.500000e+03 -8.000000e+02
      vertex   -8.000000e+02 0.000000e+00 -8.000000e+02
      vertex   -8.000000e+02 2.500000e+03 -8.000000e+02
    endloop
  endfacet
  facet normal -1.000000e+00 0.000000e+00 2.526374e-16
    outer loop
      vertex   -1.000000e+03 0.000000e+00 -1.700000e+03
      vertex   -1.000000e+03 0.000000e+00 -8.000000e+02
      vertex   -1.000000e+03 2.500000e+03 -1.700000e+03
    endloop
  endfacet
  facet normal -1.000000e+00 0.000000e+00 2.526374e-16
    outer loop
      vertex   -1.000000e+03 2.500000e+03 -1.700000e+03
      vertex   -1.000000e+03 0.000000e+00 -8.000000e+02
      vertex   -1.000000e+03 2.500000e+03 -8.000000e+02
    endloop
  endfacet
  facet normal 1.000000e+00 0.000000e+00 -1.253899e-16
    outer loop
      vertex   0.000000e+00 0.000000e+00 0.000000e+00
      vertex   -2.131628e-13 0.000000e+00 -1.700000e+03
      vertex   0.000000e+00 2.500000e+03 0.000000e+00
    endloop
  endfacet
  facet normal 1.000000e+00 0.000000e+00 -1.253899e-16
    outer loop
      vertex   0.000000e+00 2.500000e+03 0.000000e+00
      vertex   -2.131628e-13 0.000000e+00 -1.700000e+03
      vertex   -2.131628e-13 2.500000e+03 -1.700000e+03
    endloop
  endfacet
  facet normal -0.000000e+00 1.000000e+00 0.000000e+00
    outer loop
      vertex   -2.000000e+02 2.500000e+03 0.000000e+00
      vertex   0.000000e+00 2.500000e+03 0.000000e+00
      vertex   -2.000000e+02 2.500000e+03 -2.000000e+02
    endloop
  endfacet
  facet normal -0.000000e+00 1.000000e+00 0.000000e+00
    outer loop
      vertex   -2.000000e+02 2.500000e+03 -2.000000e+02
      vertex   0.000000e+00 2.500000e+03 0.000000e+00
      vertex   -2.131628e-13 2.500000e+03 -1.700000e+03
    endloop
  endfacet
  facet normal 0.000000e+00 1.000000e+00 0.000000e+00
    outer loop
      vertex   -2.000000e+02 2.500000e+03 -2.000000e+02
      vertex   -2.131628e-13 2.500000e+03 -1.700000e+03
      vertex   -4.000000e+02 2.500000e+03 -4.000000e+02
    endloop
  endfacet
  facet normal 0.000000e+00 1.000000e+00 0.000000e+00
    outer loop
      vertex   -4.000000e+02 2.500000e+03 -4.000000e+02
      vertex   -2.131628e-13 2.500000e+03 -1.700000e+03
      vertex   -6.000000e+02 2.500000e+03 -6.000000e+02
    endloop
  endfacet
  facet normal 0.000000e+00 1.000000e+00 0.000000e+00
    outer loop
      vertex   -4.000000e+02 2.500000e+03 -4.000000e+02
      vertex   -6.000000e+02 2.500000e+03 -6.000000e+02
      vertex   -6.000000e+02 2.500000e+03 -4.000000e+02
    endloop
  endfacet
  facet normal 0.000000e+00 1.000000e+00 0.000000e+00
    outer loop
      vertex   -6.000000e+02 2.500000e+03 -6.000000e+02
      vertex   -2.131628e-13 2.500000e+03 -1.700000e+03
      vertex   -8.000000e+02 2.500000e+03 -8.000000e+02
    endloop
  endfacet
  facet normal 0.000000e+00 1.000000e+00 0.000000e+00
    outer loop
      vertex   -8.000000e+02 2.500000e+03 -8.000000e+02
      vertex   -2.131628e-13 2.500000e+03 -1.700000e+03
      vertex   -1.000000e+03 2.500000e+03 -1.700000e+03
    endloop
  endfacet
  facet normal 0.000000e+00 1.000000e+00 0.000000e+00
    outer loop
      vertex   -8.000000e+02 2.500000e+03 -8.000000e+02
      vertex   -1.000000e+03 2.500000e+03 -1.700000e+03
      vertex   -1.000000e+03 2.500000e+03 -8.000000e+02
    endloop
  endfacet
  facet normal 0.000000e+00 1.000000e+00 0.000000e+00
    outer loop
      vertex   -8.000000e+02 2.500000e+03 -8.000000e+02
      vertex   -8.000000e+02 2.500000e+03 -6.000000e+02
      vertex   -6.000000e+02 2.500000e+03 -6.000000e+02
    endloop
  endfacet
  facet normal 0.000000e+00 1.000000e+00 0.000000e+00
    outer loop
      vertex   -4.000000e+02 2.500000e+03 -4.000000e+02
      vertex   -4.000000e+02 2.500000e+03 -2.000000e+02
      vertex   -2.000000e+02 2.500000e+03 -2.000000e+02
    endloop
  endfacet
  facet normal 0.000000e+00 -1.000000e+00 0.000000e+00
    outer loop
      vertex   0.000000e+00 0.000000e+00 0.000000e+00
      vertex   -2.000000e+02 0.000000e+00 -2.000000e+02
      vertex   -2.131628e-13 0.000000e+00 -1.700000e+03
    endloop
  endfacet
  facet normal 0.000000e+00 -1.000000e+00 0.000000e+00
    outer loop
      vertex   -2.131628e-13 0.000000e+00 -1.700000e+03
      vertex   -2.000000e+02 0.000000e+00 -2.000000e+02
      vertex   -4.000000e+02 0.000000e+00 -4.000000e+02
    endloop
  endfacet
  facet normal 0.000000e+00 -1.000000e+00 0.000000e+00
    outer loop
      vertex   -2.131628e-13 0.000000e+00 -1.700000e+03
      vertex   -4.000000e+02 0.000000e+00 -4.000000e+02
      vertex   -6.000000e+02 0.000000e+00 -6.000000e+02
    endloop
  endfacet
  facet normal 0.000000e+00 -1.000000e+00 0.000000e+00
    outer loop
      vertex   -6.000000e+02 0.000000e+00 -6.000000e+02
      vertex   -4.000000e+02 0.000000e+00 -4.000000e+02
      vertex   -6.000000e+02 0.000000e+00 -4.000000e+02
    endloop
  endfacet
  facet normal -0.000000e+00 -1.000000e+00 0.000000e+00
    outer loop
      vertex   0.000000e+00 0.000000e+00 0.000000e+00
      vertex   -2.000000e+02 0.000000e+00 0.000000e+00
      vertex   -2.000000e+02 0.000000e+00 -2.000000e+02
    endloop
  endfacet
  facet normal -0.000000e+00 -1.000000e+00 0.000000e+00
    outer loop
      vertex   -2.000000e+02 0.000000e+00 -2.000000e+02
      vertex   -4.000000e+02 0.000000e+00 -2.000000e+02
      vertex   -4.000000e+02 0.000000e+00 -4.000000e+02
    endloop
  endfacet
  facet normal 0.000000e+00 -1.000000e+00 0.000000e+00
    outer loop
      vertex   -8.000000e+02 0.000000e+00 -6.000000e+02
      vertex   -8.000000e+02 0.000000e+00 -8.000000e+02
      vertex   -6.000000e+02 0.000000e+00 -6.000000e+02
    endloop
  endfacet
  facet normal 0.000000e+00 -1.000000e+00 -0.000000e+00
    outer loop
      vertex   -6.000000e+02 0.000000e+00 -6.000000e+02
      vertex   -8.000000e+02 0.000000e+00 -8.000000e+02
      vertex   -2.131628e-13 0.000000e+00 -1.700000e+03
    endloop
  endfacet
  facet normal 0.000000e+00 -1.000000e+00 -0.000000e+00
    outer loop
      vertex   -1.000000e+03 0.000000e+00 -8.000000e+02
      vertex   -1.000000e+03 0.000000e+00 -1.700000e+03
      vertex   -8.000000e+02 0.000000e+00 -8.000000e+02
    endloop
  endfacet
  facet normal 0.000000e+00 -1.000000e+00 -0.000000e+00
    outer loop
      vertex   -8.000000e+02 0.000000e+00 -8.000000e+02
      vertex   -1.000000e+03 0.000000e+00 -1.700000e+03
      vertex   -2.131628e-13 0.000000e+00 -1.700000e+03
    endloop
  endfacet
endsolid
