solid ASCII
  facet normal 6.427876e-01 -0.000000e+00 7.660444e-01
    outer loop
      vertex   -1.200000e+03 0.000000e+00 1.006920e+03
      vertex   0.000000e+00 0.000000e+00 0.000000e+00
      vertex   -1.200000e+03 1.200000e+03 1.006920e+03
    endloop
  endfacet
  facet normal 6.427876e-01 0.000000e+00 7.660444e-01
    outer loop
      vertex   -1.200000e+03 1.200000e+03 1.006920e+03
      vertex   0.000000e+00 0.000000e+00 0.000000e+00
      vertex   0.000000e+00 1.200000e+03 0.000000e+00
    endloop
  endfacet
  facet normal -1.000000e+00 0.000000e+00 0.000000e+00
    outer loop
      vertex   -1.200000e+03 0.000000e+00 0.000000e+00
      vertex   -1.200000e+03 0.000000e+00 1.006920e+03
      vertex   -1.200000e+03 1.200000e+03 0.000000e+00
    endloop
  endfacet
  facet normal -1.000000e+00 0.000000e+00 0.000000e+00
    outer loop
      vertex   -1.200000e+03 1.200000e+03 0.000000e+00
      vertex   -1.200000e+03 0.000000e+00 1.006920e+03
      vertex   -1.200000e+03 1.200000e+03 1.006920e+03
    endloop
  endfacet
  facet normal 0.000000e+00 0.000000e+00 -1.000000e+00
    outer loop
      vertex   0.000000e+00 0.000000e+00 0.000000e+00
      vertex   -1.200000e+03 0.000000e+00 0.000000e+00
      vertex   0.000000e+00 1.200000e+03 0.000000e+00
    endloop
  endfacet
  facet normal -0.000000e+00 0.000000e+00 -1.000000e+00
    outer loop
      vertex   0.000000e+00 1.200000e+03 0.000000e+00
      vertex   -1.200000e+03 0.000000e+00 0.000000e+00
      vertex   -1.200000e+03 1.200000e+03 0.000000e+00
    endloop
  endfacet
  facet normal 0.000000e+00 1.000000e+00 0.000000e+00
    outer loop
      vertex   0.000000e+00 1.200000e+03 0.000000e+00
      vertex   -1.200000e+03 1.200000e+03 0.000000e+00
      vertex   -1.200000e+03 1.200000e+03 1.006920e+03
    endloop
  endfacet
  facet normal 0.000000e+00 -1.000000e+00 0.000000e+00
    outer loop
      vertex   -1.200000e+03 0.000000e+00 0.000000e+00
      vertex   0.000000e+00 0.000000e+00 0.000000e+00
      vertex   -1.200000e+03 0.000000e+00 1.006920e+03
    endloop
  endfacet
endsolid
