solid ASCII
  facet normal 5.000000e-01 -0.000000e+00 8.660254e-01
    outer loop
      vertex   -1.200000e+03 0.000000e+00 6.928203e+02
      vertex   0.000000e+00 0.000000e+00 0.000000e+00
      vertex   -1.200000e+03 1.200000e+03 6.928203e+02
    endloop
  endfacet
  facet normal 5.000000e-01 0.000000e+00 8.660254e-01
    outer loop
      vertex   -1.200000e+03 1.200000e+03 6.928203e+02
      vertex   0.000000e+00 0.000000e+00 0.000000e+00
      vertex   0.000000e+00 1.200000e+03 0.000000e+00
    endloop
  endfacet
  facet normal -1.000000e+00 0.000000e+00 3.281856e-16
    outer loop
      vertex   -1.200000e+03 0.000000e+00 0.000000e+00
      vertex   -1.200000e+03 0.000000e+00 6.928203e+02
      vertex   -1.200000e+03 1.200000e+03 0.000000e+00
    endloop
  endfacet
  facet normal -1.000000e+00 0.000000e+00 3.281856e-16
    outer loop
      vertex   -1.200000e+03 1.200000e+03 0.000000e+00
      vertex   -1.200000e+03 0.000000e+00 6.928203e+02
      vertex   -1.200000e+03 1.200000e+03 6.928203e+02
    endloop
  endfacet
  facet normal 0.000000e+00 0.000000e+00 -1.000000e+00
    outer loop
      vertex   0.000000e+00 0.000000e+00 0.000000e+00
      vertex   -1.200000e+03 0.000000e+00 0.000000e+00
      vertex   0.000000e+00 1.200000e+03 0.000000e+00
    endloop
  endfacet
  facet normal -0.000000e+00 0.000000e+00 -1.000000e+00
    outer loop
      vertex   0.000000e+00 1.200000e+03 0.000000e+00
      vertex   -1.200000e+03 0.000000e+00 0.000000e+00
      vertex   -1.200000e+03 1.200000e+03 0.000000e+00
    endloop
  endfacet
  facet normal 0.000000e+00 1.000000e+00 0.000000e+00
    outer loop
      vertex   0.000000e+00 1.200000e+03 0.000000e+00
      vertex   -1.200000e+03 1.200000e+03 0.000000e+00
      vertex   -1.200000e+03 1.200000e+03 6.928203e+02
    endloop
  endfacet
  facet normal 0.000000e+00 -1.000000e+00 0.000000e+00
    outer loop
      vertex   -1.200000e+03 0.000000e+00 0.000000e+00
      vertex   0.000000e+00 0.000000e+00 0.000000e+00
      vertex   -1.200000e+03 0.000000e+00 6.928203e+02
    endloop
  endfacet
endsolid
